<?xml version="1.0" encoding="utf-8"?>
<?xml-stylesheet type="text/xsl" href="rss1.xsl"?>
<rss version="2.0" xmlns:atom="http://www.w3.org/2005/Atom" xmlns:content="http://purl.org/rss/1.0/modules/content/" xmlns:dc="http://purl.org/dc/elements/1.1/" xmlns:media="http://search.yahoo.com/mrss/">
<channel>
 <title>Getty</title>
 <link>http://www.gettyimg.com/</link>
 <atom:link href="http://www.gettyimg.com/" rel="self" type="application/rss+xml" />

 
                <item>
                <title><![CDATA[【DVD】DVD9 - X-Men (2000) (DVD9 NTSC R1)]]></title>
                <link><![CDATA[https://sharemania.us/threads/x-men-2000-dvd9-ntsc-r1.234034/]]></link>
                <description><![CDATA[<article>
<blockquote class="messageText SelectQuoteContainer ugc baseHtml">
<img src="https://images.45worlds.com/f/dv/xmen-25-dv.jpg" class="bbCodeImage LbImage" alt="[​IMG]" data-url="https://images.45worlds.com/f/dv/xmen-25-dv.jpg" style=""><br>
<img src="https://images.45worlds.com/f/dv/xmen-26-dv.jpg" class="bbCodeImage LbImage" alt="[​IMG]" data-url="https://images.45worlds.com/f/dv/xmen-26-dv.jpg" style=""><br>
<br>
<b>Release Date</b>: November 21, 2000<br>
<br>
<div class="ToggleTriggerAnchor bbCodeSpoilerContainer">
<button type="button" class="button bbCodeSpoilerButton ToggleTrigger Tooltip JsOnly" data-target="> .SpoilerTarget"><span>Spoiler: <span class="SpoilerTitle">Media Information</span></span></button>
<div class="SpoilerTarget bbCodeSpoilerText">General<br>
Complete name : XMEN.iso<br>
Format : ISO 9660 / DVD Video<br>
Format profile : Program<br>
File size : 7.85 GiB<br>
Duration : 1 h 44 min<br>
Overall bit rate mode : Variable<br>
Overall bit rate : 10.8 Mb/s<br>
Frame rate : 29.970 FPS<br>
Movie name : XMEN<br>
Encoded date : 2000-09-19 09:41:31.00+09:00<br>
<br>
Video<br>
ID : 224 (0xE0)<br>
Format : MPEG Video<br>
Format version : Version 2<br>
Format profile : Main@Main<br>
Format settings : CustomMatrix / BVOP<br>
Format settings, BVOP : Yes<br>
Format settings, Matrix : Custom<br>
Format settings, GOP : Variable<br>
Duration : 1 h 44 min<br>
Bit rate mode : Variable<br>
Bit rate : 9 510 kb/s<br>
Maximum bit rate : 9 800 kb/s<br>
Width : 720 pixels<br>
Height : 480 pixels<br>
Display aspect ratio : 16:9<br>
Frame rate : 29.970 (29970/1000) FPS<br>
Original frame rate : 23.976 (24000/1001) FPS<br>
Standard : Component<br>
Color space : YUV<br>
Chroma subsampling : 4:2:0<br>
Bit depth : 8 bits<br>
Scan type : Progressive<br>
Scan order : 2:3 Pulldown<br>
Compression mode : Lossy<br>
Bits/(Pixel*Frame) : 0.918<br>
Time code of first frame : 01:00:00;00<br>
Time code source : Group of pictures header<br>
Stream size : 6.92 GiB (88%)<br>
Color primaries : BT.601 NTSC<br>
Transfer characteristics : BT.601<br>
Matrix coefficients : BT.601<br>
Source : VIDEO_TS/VTS_04_0.IFO<br>
<br>
Audio #1<br>
ID : 189 (0xBD)-128 (0x80)<br>
Format : AC-3<br>
Format/Info : Audio Coding 3<br>
Commercial name : Dolby Digital<br>
Muxing mode : DVD-Video<br>
Duration : 1 h 44 min<br>
Bit rate mode : Constant<br>
Bit rate : 448 kb/s<br>
Channel(s) : 6 channels<br>
Channel layout : L R C LFE Ls Rs<br>
Sampling rate : 48.0 kHz<br>
Frame rate : 31.250 FPS (1536 SPF)<br>
Compression mode : Lossy<br>
Delay relative to video : 6 ms<br>
Stream size : 334 MiB (4%)<br>
Language : English<br>
Service kind : Complete Main<br>
Source : VIDEO_TS/VTS_04_0.IFO<br>
<br>
Audio #2<br>
ID : 189 (0xBD)-129 (0x81)<br>
Format : AC-3<br>
Format/Info : Audio Coding 3<br>
Commercial name : Dolby Digital<br>
Format settings : Dolby Surround<br>
Muxing mode : DVD-Video<br>
Duration : 1 h 44 min<br>
Bit rate mode : Constant<br>
Bit rate : 192 kb/s<br>
Channel(s) : 2 channels<br>
Channel layout : L R<br>
Sampling rate : 48.0 kHz<br>
Frame rate : 31.250 FPS (1536 SPF)<br>
Compression mode : Lossy<br>
Delay relative to video : 6 ms<br>
Stream size : 143 MiB (2%)<br>
Language : English<br>
Service kind : Complete Main<br>
Source : VIDEO_TS/VTS_04_0.IFO<br>
<br>
Audio #3<br>
ID : 189 (0xBD)-130 (0x82)<br>
Format : AC-3<br>
Format/Info : Audio Coding 3<br>
Commercial name : Dolby Digital<br>
Format settings : Dolby Surround<br>
Muxing mode : DVD-Video<br>
Duration : 1 h 44 min<br>
Bit rate mode : Constant<br>
Bit rate : 192 kb/s<br>
Channel(s) : 2 channels<br>
Channel layout : L R<br>
Sampling rate : 48.0 kHz<br>
Frame rate : 31.250 FPS (1536 SPF)<br>
Compression mode : Lossy<br>
Delay relative to video : 6 ms<br>
Stream size : 143 MiB (2%)<br>
Language : French<br>
Service kind : Complete Main<br>
Source : VIDEO_TS/VTS_04_0.IFO<br>
<br>
Text #1<br>
ID : 189 (0xBD)-32 (0x20)<br>
Format : RLE<br>
Format/Info : Run-length encoding<br>
Muxing mode : DVD-Video<br>
Duration : 1 h 44 min<br>
Bit depth : 2 bits<br>
Delay relative to video : 24 s 458 ms<br>
Language : English<br>
Source : VIDEO_TS/VTS_04_0.IFO<br>
<br>
Text #2<br>
ID : 189 (0xBD)-33 (0x21)<br>
Format : RLE<br>
Format/Info : Run-length encoding<br>
Muxing mode : DVD-Video<br>
Duration : 1 h 44 min<br>
Bit depth : 2 bits<br>
Delay relative to video : 24 s 458 ms<br>
Language : Spanish<br>
Language, more info : Normal<br>
Source : VIDEO_TS/VTS_04_0.IFO<br>
<br>
Text #3<br>
ID : 189 (0xBD)-37 (0x25)<br>
Format : RLE<br>
Format/Info : Run-length encoding<br>
Muxing mode : DVD-Video<br>
Duration : 1 h 44 min<br>
Bit depth : 2 bits<br>
Delay relative to video : 24 s 458 ms<br>
Language : French<br>
Language, more info : Normal<br>
Source : VIDEO_TS/VTS_04_0.IFO<br>
<br>
Text #4<br>
ID : 189 (0xBD)-38 (0x26)<br>
Format : RLE<br>
Format/Info : Run-length encoding<br>
Muxing mode : DVD-Video<br>
Duration : 1 h 44 min<br>
Bit depth : 2 bits<br>
Delay relative to video : 24 s 458 ms<br>
Source : VIDEO_TS/VTS_04_0.IFO<br>
<br>
Text #5<br>
ID : 224 (0xE0)-CC3<br>
Format : EIA-608<br>
Format/Info : Run-length encoding<br>
Muxing mode, more info : Muxed in Video #1<br>
Duration : 1 h 44 min<br>
Start time (commands) : 2 s 480 ms<br>
Start time : 24 s 85 ms<br>
Bit rate mode : Constant<br>
Bit depth : 2 bits<br>
Stream size : 0.00 Byte (0%)<br>
Count of frames before first event : 574<br>
Type of the first event : PopOn<br>
Source : VIDEO_TS/VTS_04_0.IFO<br>
<br>
Menu<br>
Duration : 1 h 44 min<br>
00:00:00.000 : Chapter 1<br>
00:01:17.167 : Chapter 2<br>
00:04:16.700 : Chapter 3<br>
00:05:53.667 : Chapter 4<br>
00:09:21.167 : Chapter 5<br>
00:11:38.533 : Chapter 6<br>
00:17:58.667 : Chapter 7<br>
00:22:05.833 : Chapter 8<br>
00:29:52.033 : Chapter 9<br>
00:33:33.667 : Chapter 10<br>
00:38:21.500 : Chapter 11<br>
00:41:07.500 : Chapter 12<br>
00:44:09.200 : Chapter 13<br>
00:52:00.700 : Chapter 14<br>
00:59:47.833 : Chapter 15<br>
01:01:49.333 : Chapter 16<br>
01:03:12.000 : Chapter 17<br>
01:05:56.500 : Chapter 18<br>
01:08:33.667 : Chapter 19<br>
01:12:15.033 : Chapter 20<br>
01:17:57.167 : Chapter 21<br>
01:20:46.367 : Chapter 22<br>
01:24:21.000 : Chapter 23<br>
01:26:51.200 : Chapter 24<br>
01:29:01.333 : Chapter 25<br>
01:31:54.333 : Chapter 26<br>
01:33:05.333 : Chapter 27<br>
01:35:04.500 : Chapter 28<br>
01:44:11.467 : Chapter 29<br>
List (Audio) : 0 / 1 / 2<br>
List (Subtitles 4/3) : 0 / 0 / 0 / 0 / 0<br>
List (Subtitles Wide) : 0 / 1 / 2 / 3 / 4<br>
List (Subtitles Letterbox) : / / / / <br>
List (Subtitles Pan&amp;Scan) : 0 / 0 / 0 / 0 / 0<br>
Source : VIDEO_TS/VTS_04_0.IFO</div>
</div>
<div class="messageTextEndMarker">&nbsp;</div>
</blockquote>
</article>]]></description>
                <author><![CDATA[Austin Zimmermann]]></author>
                </item>

                </channel></rss>